<?xml version="1.0" encoding="UTF-8" standalone="no"?>
<svg
   xmlns:dc="http://purl.org/dc/elements/1.1/"
   xmlns:cc="http://creativecommons.org/ns#"
   xmlns:rdf="http://www.w3.org/1999/02/22-rdf-syntax-ns#"
   xmlns:svg="http://www.w3.org/2000/svg"
   xmlns="http://www.w3.org/2000/svg"
   xmlns:sodipodi="http://sodipodi.sourceforge.net/DTD/sodipodi-0.dtd"
   xmlns:inkscape="http://www.inkscape.org/namespaces/inkscape"
   width="300"
   height="225"
   viewBox="0 0 558 418"
   version="1.0"
   id="svg2"
   sodipodi:version="0.32"
   inkscape:version="0.46"
   sodipodi:docname="gail-logo.svg"
   inkscape:output_extension="org.inkscape.output.svg.inkscape">
  <metadata
     id="metadata37">
    <rdf:RDF>
      <cc:Work
         rdf:about="">
        <dc:format>image/svg+xml</dc:format>
        <dc:type
           rdf:resource="http://purl.org/dc/dcmitype/StillImage" />
      </cc:Work>
    </rdf:RDF>
  </metadata>
  <defs
     id="defs35">
    <inkscape:perspective
       sodipodi:type="inkscape:persp3d"
       inkscape:vp_x="0 : 261.25 : 1"
       inkscape:vp_y="0 : 1000 : 0"
       inkscape:vp_z="697.5 : 261.25 : 1"
       inkscape:persp3d-origin="348.75 : 174.16667 : 1"
       id="perspective39" />
  </defs>
  <sodipodi:namedview
     inkscape:window-height="669"
     inkscape:window-width="640"
     inkscape:pageshadow="2"
     inkscape:pageopacity="0.0"
     guidetolerance="10.0"
     gridtolerance="10.0"
     objecttolerance="10.0"
     borderopacity="1.0"
     bordercolor="#666666"
     pagecolor="#ffffff"
     id="base"
     showgrid="false"
     inkscape:zoom="0.77992832"
     inkscape:cx="348.75"
     inkscape:cy="261.25"
     inkscape:window-x="46"
     inkscape:window-y="46"
     inkscape:current-layer="svg2" />
  <g
     id="#e63746ff">
    <path
       d="M 0,0 L 0.24,0 C 0.18,0.06 0.06,0.18 0,0.24 L 0,0 z"
       id="path5"
       style="opacity:1;fill:#e63746" />
    <path
       d="M 262.46,6.49 C 268.96,5.71 275.51,6.35 282.03,6.14 C 287.11,5.98 292.21,5.96 297.25,6.64 C 308.81,8.19 320.5,8.48 332.06,9.95 C 366.17,15.08 399.55,25.24 430.57,40.33 C 463.39,57.34 493.7,80.27 516,110 C 535.16,135.44 547.36,166.23 549.95,198.01 C 549.62,205.85 550.12,213.71 549.51,221.53 C 548.09,231.08 548.11,240.9 545.14,250.18 C 541.98,260.03 538.75,269.91 534.29,279.27 C 527.05,293.99 518.12,307.93 507.18,320.19 C 502.09,325.76 497.35,331.69 491.44,336.45 C 467.13,358.9 438.52,376.66 407.63,388.52 C 391.76,395.51 374.9,399.77 358.18,404.18 C 349.66,406.14 340.97,407.3 332.3,408.37 C 323.45,410.25 314.37,410.33 305.42,411.41 C 298.97,412.17 292.48,411.73 286.01,411.87 C 276.66,412.39 267.31,411.8 257.96,411.77 C 246.91,410.63 235.74,410.42 224.83,408.24 C 211.79,407.22 199.13,403.76 186.55,400.39 C 162.49,393.86 139.09,384.74 117.29,372.62 C 87.23,356.64 60.54,334.15 40.17,306.84 C 26.94,288.84 16.55,268.57 11.24,246.8 C 6.04,229.42 4.35,210.95 6.94,192.97 C 7.38,184.62 9.46,176.5 11.57,168.45 C 21.1,130.8 45.51,98.57 74.64,73.62 C 97.39,54.59 123.74,40.29 151.15,29.15 C 173.56,20.61 196.8,14.15 220.56,10.67 C 234.37,7.91 248.49,7.89 262.46,6.49 M 248.37,22.17 C 230.96,23.49 213.71,26.44 196.74,30.53 C 178.72,35.32 160.67,40.53 143.9,48.81 C 131.96,53.58 121.07,60.47 109.96,66.85 C 103.52,71.02 97.34,75.58 91.12,80.06 C 84.94,85.23 78.84,90.49 72.73,95.75 C 66.71,102.74 59.85,109.02 54.56,116.63 C 47.63,125.43 41.32,134.83 37.08,145.24 C 32.22,154.76 28.48,164.83 25.98,175.21 C 23.38,184.92 21.22,194.88 21.65,204.99 C 20.79,228.35 26.8,251.7 37.37,272.46 C 42.71,284.47 50.56,295.08 58.38,305.56 C 61.53,309.7 65.57,313.05 68.85,317.08 C 73.38,322.93 79.62,327.03 84.81,332.23 C 119.47,361.13 161.84,379.9 205.72,389.58 C 220.2,393.42 235.16,394.97 250.03,396.33 C 264.96,398.06 280.01,397.07 295,397.35 C 326.84,396.03 358.47,390.05 388.62,379.75 C 403.19,374.08 417.95,368.59 431.44,360.6 C 444.49,353.71 456.7,345.36 468.32,336.31 C 476.21,329.2 484.94,322.89 491.54,314.48 C 498.24,307.09 504.89,299.54 510.11,291 C 515.37,282.03 520.88,273.13 524.54,263.34 C 533.78,240.64 537.56,215.47 534.03,191.13 C 531.14,168.58 522.06,147.24 510,128.12 C 504.67,120.21 499.07,112.44 492.39,105.62 C 469.93,81.01 442.01,61.59 411.46,48.37 C 405.02,45.16 398.28,42.66 391.5,40.32 C 362.27,29.17 331.16,23.56 300.01,21.66 C 282.8,21.83 265.55,21.04 248.37,22.17 z"
       id="path7"
       style="opacity:1;fill:#e63746" />
    <path
       d="M 258.1,102.31 C 276.28,102.23 294.47,102.15 312.65,102.34 C 316.64,108.85 319.39,116.01 323.35,122.53 C 335.52,147.23 347.95,171.81 360.02,196.54 C 341.53,196.63 323.02,196.84 304.54,196.48 C 291.69,172.32 280.54,147.32 268.14,122.93 C 264.98,115.97 261.06,109.37 258.1,102.31 z"
       id="path9"
       style="opacity:1;fill:#e63746" />
    <path
       d="M 325.26,102.19 C 344.17,102.28 363.08,102.28 381.99,102.22 C 385.74,102.29 389.6,101.8 393.26,102.8 C 395.57,104.99 396.29,108.35 397.85,111.07 C 403.57,121.49 408.07,132.54 413.97,142.88 C 419.78,155.27 426.03,167.45 432.14,179.7 C 434.77,185 437.68,190.2 439.69,195.79 C 416.89,195.65 394.09,195.88 371.29,195.68 C 368.7,190.88 366.92,185.69 364.06,181.03 C 359.98,174.18 357.16,166.7 353.54,159.62 C 345.1,142.7 336.62,125.81 328.17,108.91 C 327.08,106.72 326.17,104.45 325.26,102.19 z"
       id="path11"
       style="opacity:1;fill:#e63746" />
  </g>
  <g
     id="#ffffffff" />
  <g
     id="#ffd94fff">
    <path
       d="M 248.37,22.17 C 265.55,21.04 282.8,21.83 300.01,21.66 C 331.16,23.56 362.27,29.17 391.5,40.32 C 398.28,42.66 405.02,45.16 411.46,48.37 C 442.01,61.59 469.93,81.01 492.39,105.62 C 499.07,112.44 504.67,120.21 510,128.12 C 522.06,147.24 531.14,168.58 534.03,191.13 C 537.56,215.47 533.78,240.64 524.54,263.34 C 520.88,273.13 515.37,282.03 510.11,291 C 504.89,299.54 498.24,307.09 491.54,314.48 C 484.94,322.89 476.21,329.2 468.32,336.31 C 456.7,345.36 444.49,353.71 431.44,360.6 C 417.95,368.59 403.19,374.08 388.62,379.75 C 358.47,390.05 326.84,396.03 295,397.35 C 280.01,397.07 264.96,398.06 250.03,396.33 C 235.16,394.97 220.2,393.42 205.72,389.58 C 161.84,379.9 119.47,361.13 84.81,332.23 C 79.62,327.03 73.38,322.93 68.85,317.08 C 65.57,313.05 61.53,309.7 58.38,305.56 C 50.56,295.08 42.71,284.47 37.37,272.46 C 26.8,251.7 20.79,228.35 21.65,204.99 C 21.22,194.88 23.38,184.92 25.98,175.21 C 28.48,164.83 32.22,154.76 37.08,145.24 C 41.32,134.83 47.63,125.43 54.56,116.63 C 59.85,109.02 66.71,102.74 72.73,95.75 C 78.84,90.49 84.94,85.23 91.12,80.06 C 97.34,75.58 103.52,71.02 109.96,66.85 C 121.07,60.47 131.96,53.58 143.9,48.81 C 160.67,40.53 178.72,35.32 196.74,30.53 C 213.71,26.44 230.96,23.49 248.37,22.17 M 249.7,28.68 C 244.96,30.69 241.12,34.25 237.13,37.42 C 237.65,39.54 238.94,41.3 240.47,42.81 C 242.01,41.33 243.62,39.92 245.15,38.43 C 249.92,39.71 253.26,43.54 256.36,47.12 C 249.12,48.64 241.65,47.89 234.41,49.41 C 223.72,51.49 212.71,52.01 202.19,54.94 C 202.52,56.54 202.84,58.14 203.18,59.74 C 211.92,58.4 220.53,55.92 229.41,55.65 C 229.45,56.85 229.49,58.05 229.53,59.25 C 231.83,59.68 234.91,59.42 236.11,61.92 C 240.96,69.68 233.11,81.19 224.05,79.26 C 219.75,79.16 216.53,73.02 220.26,70.1 C 223.53,67.83 225.9,72.26 228.07,74.07 C 228.8,71.47 230.86,68.43 229.24,65.82 C 225.81,62.33 220.34,61.57 215.73,62.66 C 208.01,64.29 203.99,74.88 208.9,81.12 C 211.72,84.53 215.79,86.97 220.17,87.68 C 231.91,89.91 244.36,82.22 247.91,70.89 C 249.7,65.31 248.44,59.41 246.89,53.95 C 250.33,53.56 253.81,53.46 257.28,53.66 C 257.89,65.96 258.09,78.27 258.4,90.59 C 262.82,90.66 267.24,90.68 271.67,90.6 C 271.98,77.77 271.21,64.91 271.87,52.08 C 280.25,50.8 288.59,52.96 296.99,52.69 C 309.16,53.1 321.38,54.25 333.28,56.88 C 333.23,58.8 333.17,60.72 333.11,62.65 C 330.11,61.86 327.12,60.78 324,60.77 C 320.78,61.05 318.26,63.32 315.7,65.06 C 312.28,62.53 309.1,59.28 304.81,58.34 C 297.98,56.67 289.86,57.39 284.8,62.75 C 277.89,68.8 278.41,80.81 285.4,86.58 C 290.93,91.47 299.18,91.69 305.69,88.71 C 305.82,86.22 305.92,83.73 305.94,81.23 C 303.34,81.99 300.78,83.15 298.04,83.19 C 292.07,82.09 289.52,73.84 293.4,69.35 C 296.09,66.29 301.23,64.24 304.69,67.3 C 308.94,70.39 308.4,76.15 308.4,80.78 C 312.5,81.37 316.65,81.52 320.79,81.17 C 321.42,77.43 320.86,72.75 324.13,70.09 C 327.01,67.64 332.08,70.36 331.97,74.05 C 331.86,79.58 330.92,85.07 331.26,90.62 C 335.27,90.7 339.29,90.67 343.3,90.39 C 343.98,79.85 345.44,69.39 346.19,58.85 C 348.4,59.15 350.62,59.34 352.84,59.62 C 353.27,58.1 353.7,56.58 354.14,55.05 C 351.88,54.14 349.54,53.38 347.13,52.98 C 335.46,50.95 323.73,49.31 311.96,48.01 C 299.13,46.39 286.18,46.82 273.29,46.05 C 273.66,44.43 274.03,42.82 274.39,41.2 C 273.95,40.73 273.52,40.27 273.09,39.81 C 271.74,40.2 270.38,40.59 269.03,40.99 C 264.47,37.97 260.71,33.95 256.39,30.62 C 254.5,29.27 252.11,27.6 249.7,28.68 M 152.14,108.27 C 143.77,110.65 136.34,115.38 129.23,120.26 C 117.1,128.86 108.37,141.64 103.6,155.65 C 97.93,168.23 97.77,182.36 98.52,195.89 C 99.33,203.69 101.81,211.22 104.59,218.53 C 109.87,230.79 116.59,242.55 125.48,252.57 C 135.86,264.18 147.23,275.01 160.01,283.95 C 173.07,292.21 187.07,298.92 201.46,304.48 C 207.71,307.09 214.11,309.58 220.9,310.3 C 217.32,301.41 212.65,293.01 208.62,284.34 C 207.42,281.31 204.53,279.66 201.82,278.2 C 195.9,275.05 190.92,270.42 186.3,265.63 C 179.47,257.77 173.4,248.73 171.59,238.29 C 169.87,231.4 170.68,224.08 173.61,217.64 C 176.79,209.05 184.5,202.75 193.08,200.01 C 203.36,196.69 214.28,196.25 225,196.49 C 248.67,196.24 272.35,196.79 296.02,196.21 C 293.66,189.79 290.11,183.91 287.31,177.68 C 276.58,155.22 265.32,133.01 254.37,110.66 C 252.95,107.51 251.46,104.38 249.59,101.47 C 236.05,101.29 222.5,101.51 208.96,101.38 C 189.91,102.4 170.64,103.22 152.14,108.27 M 258.1,102.31 C 261.06,109.37 264.98,115.97 268.14,122.93 C 280.54,147.32 291.69,172.32 304.54,196.48 C 323.02,196.84 341.53,196.63 360.02,196.54 C 347.95,171.81 335.52,147.23 323.35,122.53 C 319.39,116.01 316.64,108.85 312.65,102.34 C 294.47,102.15 276.28,102.23 258.1,102.31 M 325.26,102.19 C 326.17,104.45 327.08,106.72 328.17,108.91 C 336.62,125.81 345.1,142.7 353.54,159.62 C 357.16,166.7 359.98,174.18 364.06,181.03 C 366.92,185.69 368.7,190.88 371.29,195.68 C 394.09,195.88 416.89,195.65 439.69,195.79 C 437.68,190.2 434.77,185 432.14,179.7 C 426.03,167.45 419.78,155.27 413.97,142.88 C 408.07,132.54 403.57,121.49 397.85,111.07 C 396.29,108.35 395.57,104.99 393.26,102.8 C 389.6,101.8 385.74,102.29 381.99,102.22 C 363.08,102.28 344.17,102.28 325.26,102.19 M 216.9,213.4 C 218.3,218.77 221.04,223.64 223.14,228.75 C 224.09,230.71 224.81,232.94 226.48,234.43 C 235.32,234.92 244.16,235.62 253.03,235.79 C 265.1,236.45 277.51,243.26 282.18,254.84 C 284.79,261.42 284.3,269.34 280.36,275.32 C 275.62,283.29 266.84,288.05 257.9,289.63 C 243.76,292.07 229.32,289.57 215.78,285.31 C 218.44,292.39 222.12,299.02 225.11,305.96 C 226.59,308.55 227.48,312.56 231.05,312.81 C 242.91,314.82 254.92,316.37 266.97,316.33 C 276.87,315.7 286.86,315.72 296.58,313.5 C 314.33,309.88 332.96,303.33 344.43,288.48 C 352.9,278.04 354.65,263.49 351.13,250.78 C 349.81,245.81 346.78,241.44 345.91,236.33 C 348.43,236.32 350.95,236.39 353.47,236.52 C 356.99,242.5 359.71,248.91 362.98,255.03 C 372.61,274.99 382.49,294.84 392.36,314.68 C 413.54,314.99 434.74,314.67 455.92,314.64 C 442.13,286.01 428.22,257.43 413.91,229.06 C 411.14,223.81 408.91,218.28 405.71,213.28 C 374.48,212.82 343.24,213.17 312,213.12 C 296.66,213.39 281.34,212.21 266,212.62 C 249.65,213.67 233.25,212.64 216.9,213.4 M 213.35,339.26 C 201.18,344.35 198.15,361.87 206.27,371.69 C 210.11,376.44 215.92,379.41 221.99,379.96 C 227.95,380.63 234.98,380 239.18,375.18 C 242.49,371.09 245.25,365.98 244.67,360.55 C 236.8,358.92 228.86,357.6 220.88,356.68 C 220.27,359.02 219.91,361.41 219.83,363.83 C 224.55,365.15 229.47,365.44 234.29,366.23 C 233.79,368.17 233.03,370.23 231.07,371.14 C 226.47,373.49 220.51,372.61 216.4,369.61 C 210.19,364.82 210.17,354.79 214.95,349 C 218.88,344.38 226.01,344.25 231.12,346.85 C 233.84,348.09 234.69,351.27 236.82,353.18 C 239.67,354.43 242.85,354.5 245.91,354.78 C 245.61,351.73 244.83,348.63 242.75,346.28 C 235.91,337.79 223.28,335.83 213.35,339.26 M 318.35,340.44 C 318.1,345.71 319.21,350.88 320.01,356.06 C 321.51,364.07 321.67,372.33 323.95,380.2 C 334.09,378.94 344.07,376.71 354.12,374.85 C 354.06,372.29 353.87,369.74 353.6,367.2 C 346.69,367.7 340.05,370.01 333.14,370.38 L 332.5,369.76 C 330.84,359.57 329.31,349.34 327.6,339.15 C 324.48,339.26 321.38,339.72 318.35,340.44 M 262.4,341.46 C 257.42,352.29 253.21,363.46 248.23,374.29 C 247.12,376.65 246.36,379.15 245.81,381.7 C 249.05,381.86 252.29,381.84 255.53,381.63 C 256.68,378.99 257.9,376.39 259.12,373.79 C 264.35,373.57 269.59,373.77 274.81,374.19 C 276.01,376.78 277.2,379.37 278.31,382.01 C 281.62,382.6 285,382.65 288.35,382.29 C 287.33,378.32 285.86,374.49 284.24,370.73 C 280.18,361.09 276.8,351.15 272.3,341.7 C 269.01,341.37 265.7,341.3 262.4,341.46 M 296.23,342.32 C 296.68,355.76 296.11,369.29 297.99,382.64 C 300.94,382.7 303.89,382.68 306.84,382.64 C 307.57,376.43 306.9,370.19 306.79,363.97 C 306.48,356.82 306.66,349.67 306.39,342.53 C 303.03,341.85 299.61,341.98 296.23,342.32 z"
       id="path15"
       style="opacity:1;fill:#ffd94f" />
    <path
       d="M 261.95,366.55 C 263.25,361.8 265.22,357.26 267.62,352.98 C 269.62,357.44 271.46,361.98 272.85,366.67 C 269.21,366.76 265.58,366.72 261.95,366.55 z"
       id="path17"
       style="opacity:1;fill:#ffd94f" />
  </g>
  <g
     id="#232425ff">
    <path
       d="M 249.7,28.68 C 252.11,27.6 254.5,29.27 256.39,30.62 C 260.71,33.95 264.47,37.97 269.03,40.99 C 270.38,40.59 271.74,40.2 273.09,39.81 C 273.52,40.27 273.95,40.73 274.39,41.2 C 274.03,42.82 273.66,44.43 273.29,46.05 C 286.18,46.82 299.13,46.39 311.96,48.01 C 323.73,49.31 335.46,50.95 347.13,52.98 C 349.54,53.38 351.88,54.14 354.14,55.05 C 353.7,56.58 353.27,58.1 352.84,59.62 C 350.62,59.34 348.4,59.15 346.19,58.85 C 345.44,69.39 343.98,79.85 343.3,90.39 C 339.29,90.67 335.27,90.7 331.26,90.62 C 330.92,85.07 331.86,79.58 331.97,74.05 C 332.08,70.36 327.01,67.64 324.13,70.09 C 320.86,72.75 321.42,77.43 320.79,81.17 C 316.65,81.52 312.5,81.37 308.4,80.78 C 308.4,76.15 308.94,70.39 304.69,67.3 C 301.23,64.24 296.09,66.29 293.4,69.35 C 289.52,73.84 292.07,82.09 298.04,83.19 C 300.78,83.15 303.34,81.99 305.94,81.23 C 305.92,83.73 305.82,86.22 305.69,88.71 C 299.18,91.69 290.93,91.47 285.4,86.58 C 278.41,80.81 277.89,68.8 284.8,62.75 C 289.86,57.39 297.98,56.67 304.81,58.34 C 309.1,59.28 312.28,62.53 315.7,65.06 C 318.26,63.32 320.78,61.05 324,60.77 C 327.12,60.78 330.11,61.86 333.11,62.65 C 333.17,60.72 333.23,58.8 333.28,56.88 C 321.38,54.25 309.16,53.1 296.99,52.69 C 288.59,52.96 280.25,50.8 271.87,52.08 C 271.21,64.91 271.98,77.77 271.67,90.6 C 267.24,90.68 262.82,90.66 258.4,90.59 C 258.09,78.27 257.89,65.96 257.28,53.66 C 253.81,53.46 250.33,53.56 246.89,53.95 C 248.44,59.41 249.7,65.31 247.91,70.89 C 244.36,82.22 231.91,89.91 220.17,87.68 C 215.79,86.97 211.72,84.53 208.9,81.12 C 203.99,74.88 208.01,64.29 215.73,62.66 C 220.34,61.57 225.81,62.33 229.24,65.82 C 230.86,68.43 228.8,71.47 228.07,74.07 C 225.9,72.26 223.53,67.83 220.26,70.1 C 216.53,73.02 219.75,79.16 224.05,79.26 C 233.11,81.19 240.96,69.68 236.11,61.92 C 234.91,59.42 231.83,59.68 229.53,59.25 C 229.49,58.05 229.45,56.85 229.41,55.65 C 220.53,55.92 211.92,58.4 203.18,59.74 C 202.84,58.14 202.52,56.54 202.19,54.94 C 212.71,52.01 223.72,51.49 234.41,49.41 C 241.65,47.89 249.12,48.64 256.36,47.12 C 253.26,43.54 249.92,39.71 245.15,38.43 C 243.62,39.92 242.01,41.33 240.47,42.81 C 238.94,41.3 237.65,39.54 237.13,37.42 C 241.12,34.25 244.96,30.69 249.7,28.68 z"
       id="path20"
       style="opacity:1;fill:#232425" />
    <path
       d="M 152.14,108.27 C 170.64,103.22 189.91,102.4 208.96,101.38 C 222.5,101.51 236.05,101.29 249.59,101.47 C 251.46,104.38 252.95,107.51 254.37,110.66 C 265.32,133.01 276.58,155.22 287.31,177.68 C 290.11,183.91 293.66,189.79 296.02,196.21 C 272.35,196.79 248.67,196.24 225,196.49 C 214.28,196.25 203.36,196.69 193.08,200.01 C 184.5,202.75 176.79,209.05 173.61,217.64 C 170.68,224.08 169.87,231.4 171.59,238.29 C 173.4,248.73 179.47,257.77 186.3,265.63 C 190.92,270.42 195.9,275.05 201.82,278.2 C 204.53,279.66 207.42,281.31 208.62,284.34 C 212.65,293.01 217.32,301.41 220.9,310.3 C 214.11,309.58 207.71,307.09 201.46,304.48 C 187.07,298.92 173.07,292.21 160.01,283.95 C 147.23,275.01 135.86,264.18 125.48,252.57 C 116.59,242.55 109.87,230.79 104.59,218.53 C 101.81,211.22 99.33,203.69 98.52,195.89 C 97.77,182.36 97.93,168.23 103.6,155.65 C 108.37,141.64 117.1,128.86 129.23,120.26 C 136.34,115.38 143.77,110.65 152.14,108.27 z"
       id="path22"
       style="opacity:1;fill:#232425" />
    <path
       d="M 216.9,213.4 C 233.25,212.64 249.65,213.67 266,212.62 C 281.34,212.21 296.66,213.39 312,213.12 C 343.24,213.17 374.48,212.82 405.71,213.28 C 408.91,218.28 411.14,223.81 413.91,229.06 C 428.22,257.43 442.13,286.01 455.92,314.64 C 434.74,314.67 413.54,314.99 392.36,314.68 C 382.49,294.84 372.61,274.99 362.98,255.03 C 359.71,248.91 356.99,242.5 353.47,236.52 C 350.95,236.39 348.43,236.32 345.91,236.33 C 346.78,241.44 349.81,245.81 351.13,250.78 C 354.65,263.49 352.9,278.04 344.43,288.48 C 332.96,303.33 314.33,309.88 296.58,313.5 C 286.86,315.72 276.87,315.7 266.97,316.33 C 254.92,316.37 242.91,314.82 231.05,312.81 C 227.48,312.56 226.59,308.55 225.11,305.96 C 222.12,299.02 218.44,292.39 215.78,285.31 C 229.32,289.57 243.76,292.07 257.9,289.63 C 266.84,288.05 275.62,283.29 280.36,275.32 C 284.3,269.34 284.79,261.42 282.18,254.84 C 277.51,243.26 265.1,236.45 253.03,235.79 C 244.16,235.62 235.32,234.92 226.48,234.43 C 224.81,232.94 224.09,230.71 223.14,228.75 C 221.04,223.64 218.3,218.77 216.9,213.4 z"
       id="path24"
       style="opacity:1;fill:#232425" />
    <path
       d="M 213.35,339.26 C 223.28,335.83 235.91,337.79 242.75,346.28 C 244.83,348.63 245.61,351.73 245.91,354.78 C 242.85,354.5 239.67,354.43 236.82,353.18 C 234.69,351.27 233.84,348.09 231.12,346.85 C 226.01,344.25 218.88,344.38 214.95,349 C 210.17,354.79 210.19,364.82 216.4,369.61 C 220.51,372.61 226.47,373.49 231.07,371.14 C 233.03,370.23 233.79,368.17 234.29,366.23 C 229.47,365.44 224.55,365.15 219.83,363.83 C 219.91,361.41 220.27,359.02 220.88,356.68 C 228.86,357.6 236.8,358.92 244.67,360.55 C 245.25,365.98 242.49,371.09 239.18,375.18 C 234.98,380 227.95,380.63 221.99,379.96 C 215.92,379.41 210.11,376.44 206.27,371.69 C 198.15,361.87 201.18,344.35 213.35,339.26 z"
       id="path26"
       style="opacity:1;fill:#232425" />
    <path
       d="M 318.35,340.44 C 321.38,339.72 324.48,339.26 327.6,339.15 C 329.31,349.34 330.84,359.57 332.5,369.76 L 333.14,370.38 C 340.05,370.01 346.69,367.7 353.6,367.2 C 353.87,369.74 354.06,372.29 354.12,374.85 C 344.07,376.71 334.09,378.94 323.95,380.2 C 321.67,372.33 321.51,364.07 320.01,356.06 C 319.21,350.88 318.1,345.71 318.35,340.44 z"
       id="path28"
       style="opacity:1;fill:#232425" />
    <path
       d="M 262.4,341.46 C 265.7,341.3 269.01,341.37 272.3,341.7 C 276.8,351.15 280.18,361.09 284.24,370.73 C 285.86,374.49 287.33,378.32 288.35,382.29 C 285,382.65 281.62,382.6 278.31,382.01 C 277.2,379.37 276.01,376.78 274.81,374.19 C 269.59,373.77 264.35,373.57 259.12,373.79 C 257.9,376.39 256.68,378.99 255.53,381.63 C 252.29,381.84 249.05,381.86 245.81,381.7 C 246.36,379.15 247.12,376.65 248.23,374.29 C 253.21,363.46 257.42,352.29 262.4,341.46 M 261.95,366.55 C 265.58,366.72 269.21,366.76 272.85,366.67 C 271.46,361.98 269.62,357.44 267.62,352.98 C 265.22,357.26 263.25,361.8 261.95,366.55 z"
       id="path30"
       style="opacity:1;fill:#232425" />
    <path
       d="M 296.23,342.32 C 299.61,341.98 303.03,341.85 306.39,342.53 C 306.66,349.67 306.48,356.82 306.79,363.97 C 306.9,370.19 307.57,376.43 306.84,382.64 C 303.89,382.68 300.94,382.7 297.99,382.64 C 296.11,369.29 296.68,355.76 296.23,342.32 z"
       id="path32"
       style="opacity:1;fill:#232425" />
  </g>
</svg>
