<svg width="60" height="24" viewBox="0 0 60 24" fill="none" xmlns="http://www.w3.org/2000/svg">
<path d="M48.6948 12.2511L54.3944 22.9237H60L48.6948 1.78284L37.3897 22.9237H42.9953L48.6948 12.2511Z" fill="black"/>
<path d="M30.1419 17.9717L30.1576 1.7506H25.2096V22.9229H34.7454L37.3917 17.9717H30.1419Z" fill="black"/>
<path d="M11.3208 1.00001C9.08422 0.996901 6.89694 1.65983 5.03576 2.90493C3.17457 4.15003 1.72312 5.92133 0.865061 7.99472C0.00699765 10.0681 -0.219118 12.3504 0.215325 14.5528C0.649768 16.7553 1.72524 18.7788 3.30568 20.3675C4.88611 21.9562 6.90047 23.0386 9.09388 23.4778C11.2873 23.9169 13.5612 23.6931 15.6279 22.8346C17.6945 21.9762 19.4611 20.5216 20.704 18.655C21.9469 16.7884 22.6104 14.5937 22.6104 12.3485C22.6104 9.34142 21.4214 6.45726 19.3047 4.32946C17.1879 2.20166 14.3164 1.00418 11.3208 1.00001ZM11.3208 18.4629C10.1155 18.466 8.93632 18.11 7.9326 17.44C6.92888 16.7701 6.14574 15.8162 5.68232 14.6993C5.21891 13.5823 5.09605 12.3524 5.3293 11.1653C5.56255 9.97821 6.14142 8.88727 6.99264 8.03059C7.84386 7.17391 8.92914 6.59001 10.1111 6.35281C11.2931 6.11561 12.5186 6.23577 13.6325 6.69809C14.7464 7.1604 15.6986 7.94408 16.3686 8.94992C17.0386 9.95576 17.3962 11.1385 17.3962 12.3485C17.392 13.9716 16.7468 15.5267 15.6021 16.673C14.4573 17.8192 12.9064 18.4629 11.2895 18.4629H11.3208Z" fill="black"/>
</svg>
